# Blender v2.92.0 OBJ File: 'chaise.blend'
# www.blender.org
mtllib binder.mtl
o Cube_Cube.004
v -0.982319 -0.003248 1.115658
v -0.987398 0.061199 1.115658
v -0.982319 -0.003248 -1.115658
v -0.987395 0.061199 -1.115658
v 0.982319 0.003249 1.115658
v 1.019901 0.047260 1.115658
v 1.010225 0.017471 1.115658
v 0.998020 0.324926 1.115658
v 0.954009 0.362508 1.115658
v 0.983798 0.352832 1.115658
v 1.019901 0.047260 -1.074735
v 0.982319 0.003249 -1.115658
v 1.010225 0.017471 -1.103672
v 0.998020 0.324926 -1.074735
v 0.954009 0.362508 -1.115658
v 0.983798 0.352832 -1.103672
v 0.931816 0.336035 -1.115658
v 0.931816 0.336035 1.115658
v 0.956254 0.025918 -1.115658
v 0.979703 0.036447 -1.115658
v 0.956254 0.025918 1.115658
v -0.984256 0.021323 -1.115658
v -0.984256 0.021323 1.115658
v 0.956625 0.329309 -1.115658
v -0.985459 0.036628 -1.115658
v -0.985462 0.036628 1.115658
v 0.961477 0.327994 -1.113698
v 0.961477 0.327994 1.115658
v 0.984289 0.038506 -1.113698
v 0.984289 0.038506 1.115658
v 0.975388 0.304034 -1.108733
v 0.975388 0.304034 1.115658
v 0.994276 0.064349 -1.108733
v 0.994276 0.064349 1.115658
v 0.868185 0.302022 1.034236
v 0.818169 0.292074 1.034236
v 0.775767 0.263741 1.034236
v 0.747435 0.221340 1.034236
v 0.737486 0.171323 1.034236
v 0.747435 0.121307 1.034236
v 0.775767 0.078905 1.034236
v 0.818169 0.050573 1.034236
v 0.868185 0.040624 1.034236
v 0.918202 0.050573 1.034236
v 0.960603 0.078905 1.034236
v 0.988936 0.121307 1.034236
v 0.998884 0.171323 1.034236
v 0.988936 0.221340 1.034236
v 0.960603 0.263741 1.034236
v 0.918202 0.292074 1.034236
v 0.824157 0.277616 1.034236
v 0.868185 0.286374 1.034236
v 0.786832 0.252676 1.034236
v 0.761892 0.215351 1.034236
v 0.753134 0.171323 1.034236
v 0.761892 0.127295 1.034236
v 0.786832 0.089970 1.034236
v 0.824157 0.065030 1.034236
v 0.868185 0.056272 1.034236
v 0.912213 0.065030 1.034236
v 0.949538 0.089970 1.034236
v 0.974478 0.127295 1.034236
v 0.983236 0.171323 1.034236
v 0.974478 0.215351 1.034236
v 0.949538 0.252676 1.034236
v 0.912213 0.277616 1.034236
v 0.868185 0.302022 -1.036990
v 0.818169 0.292074 -1.036990
v 0.775767 0.263741 -1.036990
v 0.747435 0.221340 -1.036990
v 0.737486 0.171323 -1.036990
v 0.747435 0.121307 -1.036990
v 0.775767 0.078905 -1.036990
v 0.818169 0.050573 -1.036990
v 0.868185 0.040624 -1.036990
v 0.918202 0.050573 -1.036990
v 0.960603 0.078905 -1.036990
v 0.988936 0.121307 -1.036990
v 0.998884 0.171323 -1.036990
v 0.988936 0.221340 -1.036990
v 0.960603 0.263741 -1.036990
v 0.918202 0.292074 -1.036990
v 0.824157 0.277616 -1.036990
v 0.868185 0.286374 -1.036990
v 0.786832 0.252676 -1.036990
v 0.761892 0.215351 -1.036990
v 0.753134 0.171323 -1.036990
v 0.761892 0.127295 -1.036990
v 0.786832 0.089970 -1.036990
v 0.824157 0.065030 -1.036990
v 0.868185 0.056272 -1.036990
v 0.912213 0.065030 -1.036990
v 0.949538 0.089970 -1.036990
v 0.974478 0.127295 -1.036990
v 0.983236 0.171323 -1.036990
v 0.974478 0.215351 -1.036990
v 0.949538 0.252676 -1.036990
v 0.912213 0.277616 -1.036990
v -0.835509 0.015759 1.056146
v -0.835509 0.049427 1.056146
v -0.835509 0.015759 -1.065549
v -0.835509 0.049427 -1.065549
v 0.846662 0.013688 1.056146
v 0.784544 0.139498 1.056146
v 0.846662 0.013688 -1.065549
v 0.784544 0.139498 -1.065549
v -0.801264 0.033758 1.089529
v 0.816180 0.087748 1.089529
v -0.801264 0.033758 -1.102366
v 0.816180 0.087748 -1.102366
v -0.791622 0.072293 1.102559
v 0.826415 0.103876 1.102559
v -0.791622 0.072293 -1.089337
v 0.826415 0.103876 -1.089337
v -0.751640 0.021028 1.062332
v 0.865944 0.070661 1.062332
v -0.751640 0.021028 -1.129563
v 0.865944 0.070661 -1.129563
v -0.775899 0.047878 1.123376
v 0.840509 0.127050 1.123376
v -0.775899 0.047878 -1.110153
v 0.840509 0.127050 -1.110153
vt 0.872870 0.000000
vt 0.876287 0.000000
vt 0.876287 0.309375
vt 0.872870 0.309375
vt 0.821637 0.315049
vt 0.823299 0.311036
vt 0.827311 0.309375
vt 0.865929 0.309375
vt 0.869941 0.311036
vt 0.871603 0.315049
vt 0.851102 0.586677
vt 0.847685 0.586677
vt 0.868186 0.318404
vt 0.866751 0.314392
vt 0.863288 0.312730
vt 0.829952 0.312730
vt 0.826489 0.314392
vt 0.825055 0.318404
vt 0.845556 0.586677
vt 0.842139 0.586677
vt 0.279819 0.000000
vt 0.550754 0.000000
vt 0.550754 0.309375
vt 0.279819 0.309375
vt 0.779008 0.313533
vt 0.817507 0.313779
vt 0.817507 0.616484
vt 0.779008 0.616238
vt 0.843405 0.000000
vt 0.846822 0.000000
vt 0.826321 0.267006
vt 0.827521 0.270346
vt 0.822904 0.270346
vt 0.775140 0.309375
vt 0.821637 0.309671
vt 0.871208 0.274500
vt 0.824566 0.274500
vt 0.827756 0.271025
vt 0.831219 0.272746
vt 0.864555 0.272746
vt 0.868018 0.271025
vt 0.868252 0.270346
vt 0.872870 0.270346
vt 0.004001 0.000000
vt 0.004001 0.309375
vt 0.000000 0.307713
vt 0.000000 0.000000
vt 0.775140 0.616079
vt 0.275762 0.309375
vt 0.275762 0.001662
vt 0.821637 0.616375
vt 0.275761 0.309375
vt 0.275761 0.000000
vt 0.876287 0.309375
vt 0.876287 0.000000
vt 0.879704 0.000000
vt 0.879704 0.309375
vt 0.272717 0.309374
vt 0.272717 0.618477
vt 0.272067 0.618749
vt 0.268747 0.618749
vt 0.268747 0.309374
vt 0.869452 0.267006
vt 0.848951 0.000000
vt 0.852368 0.000000
vt 0.822904 0.000272
vt 0.822904 0.309375
vt 0.818882 0.309375
vt 0.818882 0.000000
vt 0.822246 0.000000
vt 0.550754 0.309375
vt 0.550755 0.000000
vt 0.000000 0.618749
vt 0.000000 0.309374
vt 0.281369 0.617789
vt 0.281369 0.309375
vt 0.314702 0.309375
vt 0.314702 0.617789
vt 0.277884 0.618477
vt 0.277884 0.309375
vt 0.318142 0.309375
vt 0.318142 0.618477
vt 0.245228 0.656424
vt 0.239004 0.656424
vt 0.238581 0.654296
vt 0.245651 0.654296
vt 0.250978 0.658806
vt 0.252184 0.657002
vt 0.255380 0.663207
vt 0.257184 0.662001
vt 0.257761 0.668957
vt 0.259889 0.668534
vt 0.257761 0.675181
vt 0.259889 0.675605
vt 0.255380 0.680932
vt 0.257184 0.682137
vt 0.250978 0.685333
vt 0.252184 0.687137
vt 0.245228 0.687715
vt 0.245651 0.689843
vt 0.239004 0.687715
vt 0.238581 0.689843
vt 0.233254 0.685333
vt 0.232048 0.687137
vt 0.228853 0.680932
vt 0.227048 0.682137
vt 0.226471 0.675181
vt 0.224343 0.675605
vt 0.226471 0.668957
vt 0.224343 0.668534
vt 0.228853 0.663207
vt 0.227048 0.662001
vt 0.233254 0.658806
vt 0.232048 0.657002
vt 0.245228 0.620877
vt 0.245651 0.618749
vt 0.238581 0.618749
vt 0.239004 0.620877
vt 0.250978 0.623259
vt 0.252184 0.621455
vt 0.255380 0.627660
vt 0.257184 0.626455
vt 0.257761 0.633410
vt 0.259889 0.632987
vt 0.257761 0.639634
vt 0.259889 0.640058
vt 0.255380 0.645385
vt 0.257184 0.646590
vt 0.250978 0.649786
vt 0.252184 0.651590
vt 0.245228 0.652168
vt 0.245651 0.654296
vt 0.239004 0.652168
vt 0.238581 0.654296
vt 0.233254 0.649786
vt 0.232048 0.651590
vt 0.228853 0.645385
vt 0.227048 0.646590
vt 0.226471 0.639635
vt 0.224343 0.640058
vt 0.226471 0.633410
vt 0.224343 0.632987
vt 0.228853 0.627660
vt 0.227048 0.626455
vt 0.233254 0.623259
vt 0.232048 0.621455
vt 0.273225 0.309375
vt 0.277884 0.309375
vt 0.277884 0.603550
vt 0.273225 0.603550
vt 0.312749 0.850618
vt 0.308081 0.850627
vt 0.295317 0.627084
vt 0.312749 0.618477
vt 0.890181 0.602586
vt 0.871603 0.603053
vt 0.871603 0.309842
vt 0.890181 0.309375
vt 0.295317 0.851718
vt 0.277884 0.843084
vt 0.290649 0.618477
vt 0.295317 0.618483
vt 0.318142 0.309375
vt 0.550754 0.309375
vt 0.550754 0.603550
vt 0.318142 0.603550
vt 1.000000 0.913231
vt 0.775034 0.913231
vt 0.775034 0.619056
vt 1.000000 0.619056
vt 0.775034 0.922965
vt 0.550754 0.922965
vt 0.550754 0.619056
vt 0.775034 0.619056
vt 0.224343 0.922658
vt 0.000000 0.922658
vt 0.000000 0.618749
vt 0.224343 0.618749
vt 0.318142 0.603550
vt 0.542496 0.603550
vt 0.542496 0.907459
vt 0.318142 0.907459
vt 0.775140 0.619056
vt 0.550754 0.619056
vt 0.550754 0.309375
vt 0.775140 0.309375
vn -0.9969 -0.0786 0.0000
vn 0.0000 0.0000 1.0000
vn 0.0486 0.9988 -0.0000
vn -0.1534 0.9882 -0.0000
vn 0.0800 0.9968 -0.0000
vn 0.9864 -0.0709 -0.1481
vn 0.9631 0.2245 -0.1481
vn 0.9624 0.2715 -0.0000
vn 0.9931 -0.1174 -0.0000
vn -0.0000 0.0000 -1.0000
vn 0.2356 0.0186 -0.9717
vn 0.1736 0.0137 -0.9847
vn 0.9210 0.0726 -0.3827
vn 0.3815 0.0301 -0.9239
vn 0.2351 -0.9720 -0.0000
vn 0.2045 -0.9789 -0.0000
vn 0.4541 -0.8910 -0.0000
vn 0.9511 -0.3089 -0.0000
vn 0.3089 0.9511 -0.0000
vn 0.8910 0.4541 -0.0000
vn 0.0033 -1.0000 0.0000
vn -0.4096 0.9123 0.0000
vn -0.2106 0.9776 0.0000
vn -0.2617 -0.9652 0.0000
vn -0.0549 -0.9985 0.0000
vn 0.1543 -0.9880 0.0000
vn -0.0024 1.0000 0.0000
vn -0.9877 0.1566 0.0000
vn -0.9895 0.1446 0.0000
vn -0.9546 -0.2978 0.0000
vn -0.9510 -0.3093 0.0000
vn -0.9328 0.3605 0.0000
vn -0.8648 -0.5021 0.0000
vn -1.0000 0.0000 0.0000
vn 0.8967 0.4427 0.0000
vn -0.0012 -1.0000 0.0000
vn -0.0555 0.9985 0.0000
vn -0.0195 0.9998 0.0000
vn -0.0307 0.9995 0.0000
vn -0.0334 0.9994 0.0000
vn -0.0489 0.9988 0.0000
usemtl Green
s 1
f 1/1/1 23/2/1 22/3/1 3/4/1
f 5/5/2 7/6/2 6/7/2 8/8/2 10/9/2 9/10/2 2/11/2 26/12/2 18/13/2 28/14/2 32/15/2 34/16/2 30/17/2 21/18/2 23/19/2 1/20/2
f 15/21/3 4/22/4 2/23/4 9/24/5
f 11/25/6 14/26/7 8/27/8 6/28/9
f 3/29/10 22/30/10 19/31/10 20/32/11 12/33/12
f 14/26/7 11/25/6 13/34/13 16/35/13
f 16/36/14 13/37/14 12/33/12 20/32/11 29/38/14 33/39/14 31/40/14 27/41/14 24/42/11 15/43/12
f 5/44/15 12/45/16 13/46/17 7/47/17
f 7/48/18 13/34/18 11/25/6 6/28/9
f 15/21/3 9/24/5 10/49/19 16/50/19
f 16/35/20 10/51/20 8/27/8 14/26/7
f 3/52/21 12/45/16 5/44/15 1/53/21
f 25/54/1 26/55/1 2/56/1 4/57/1
f 30/58/22 29/59/22 20/60/22 19/61/23 21/62/23
f 24/42/11 17/63/10 25/64/10 4/65/10 15/43/12
f 27/66/24 28/67/24 18/68/25 17/69/25 24/70/24
f 17/69/25 18/68/25 26/71/26 25/72/26
f 21/62/23 19/61/23 22/73/27 23/74/27
f 33/75/28 34/76/29 32/77/30 31/78/31
f 34/76/29 33/75/28 29/79/32 30/80/32
f 31/78/31 32/77/30 28/81/33 27/82/33
usemtl Metal
f 51/83/2 52/84/2 35/85/2 36/86/2
f 53/87/2 51/83/2 36/86/2 37/88/2
f 54/89/2 53/87/2 37/88/2 38/90/2
f 55/91/2 54/89/2 38/90/2 39/92/2
f 56/93/2 55/91/2 39/92/2 40/94/2
f 57/95/2 56/93/2 40/94/2 41/96/2
f 58/97/2 57/95/2 41/96/2 42/98/2
f 59/99/2 58/97/2 42/98/2 43/100/2
f 60/101/2 59/99/2 43/100/2 44/102/2
f 61/103/2 60/101/2 44/102/2 45/104/2
f 62/105/2 61/103/2 45/104/2 46/106/2
f 63/107/2 62/105/2 46/106/2 47/108/2
f 64/109/2 63/107/2 47/108/2 48/110/2
f 65/111/2 64/109/2 48/110/2 49/112/2
f 66/113/2 65/111/2 49/112/2 50/114/2
f 52/84/2 66/113/2 50/114/2 35/85/2
f 83/115/10 68/116/10 67/117/10 84/118/10
f 85/119/10 69/120/10 68/116/10 83/115/10
f 86/121/10 70/122/10 69/120/10 85/119/10
f 87/123/10 71/124/10 70/122/10 86/121/10
f 88/125/10 72/126/10 71/124/10 87/123/10
f 89/127/10 73/128/10 72/126/10 88/125/10
f 90/129/10 74/130/10 73/128/10 89/127/10
f 91/131/10 75/132/10 74/130/10 90/129/10
f 92/133/10 76/134/10 75/132/10 91/131/10
f 93/135/10 77/136/10 76/134/10 92/133/10
f 94/137/10 78/138/10 77/136/10 93/135/10
f 95/139/10 79/140/10 78/138/10 94/137/10
f 96/141/10 80/142/10 79/140/10 95/139/10
f 97/143/10 81/144/10 80/142/10 96/141/10
f 98/145/10 82/146/10 81/144/10 97/143/10
f 84/118/10 67/117/10 82/146/10 98/145/10
usemtl Paper
f 99/147/34 100/148/34 102/149/34 101/150/34
f 101/151/10 102/152/10 106/153/10 105/154/10
f 105/155/35 106/156/35 104/157/35 103/158/35
f 103/159/2 104/160/2 100/161/2 99/162/2
f 101/163/36 105/164/36 103/165/36 99/166/36
f 106/167/37 102/168/37 100/169/37 104/170/37
f 111/171/38 112/172/38 114/173/38 113/174/38
f 115/175/39 116/176/39 118/177/39 117/178/39
usemtl Red_paper
f 107/179/40 108/180/40 110/181/40 109/182/40
f 119/183/41 120/184/41 122/185/41 121/186/41
