# Blender v2.92.0 OBJ File: 'chaise.blend'
# www.blender.org
mtllib desk.mtl
o main_Cube
v -1.000000 -0.024050 -3.491400
v -1.000000 3.345483 -3.491400
v -1.000000 -0.024050 -6.491400
v -1.000000 3.345483 -6.491400
v 4.000000 0.067754 -3.583204
v 4.000000 3.255949 -3.583204
v 4.000000 0.067754 -6.399596
v 4.000000 3.255949 -6.399596
v 4.000000 3.345483 -6.491400
v 4.000000 -0.024050 -6.491400
v 4.000000 -0.024050 -3.491400
v 4.000000 3.345483 -3.491400
v 4.000000 3.255949 -3.491400
v 4.000000 3.255949 -6.491400
v 4.100000 3.345483 -6.491400
v 4.100000 3.345483 -3.491400
v 4.100000 3.255949 -6.399596
v 4.100000 3.255949 -3.583204
v 4.100000 3.255949 -3.491400
v 4.100000 3.255949 -6.491400
v -0.900000 3.255949 -6.399596
v -0.900000 0.067754 -6.399596
v -0.900000 0.067754 -3.583204
v -0.900000 3.255949 -3.583204
v 3.505555 -0.007127 6.383153
v 3.564333 -0.007127 6.402252
v 3.600660 -0.007127 6.452251
v 3.600660 -0.007127 6.514055
v 3.564333 -0.007127 6.564055
v 3.564333 0.089292 6.564055
v 3.505555 -0.007127 6.583153
v 3.446776 -0.007127 6.564055
v 3.410449 -0.007127 6.514055
v 3.410449 -0.007127 6.452251
v 3.446776 -0.007127 6.402252
v -0.478317 -0.007127 6.383153
v -0.419539 -0.007127 6.402252
v -0.383212 -0.007127 6.452251
v -0.383212 -0.007127 6.514055
v -0.419539 -0.007127 6.564055
v -0.478317 -0.007127 6.583153
v -0.478317 0.089292 6.583153
v -0.537096 -0.007127 6.564055
v -0.573423 -0.007127 6.514055
v -0.573423 -0.007127 6.452251
v -0.537096 -0.007127 6.402252
v -0.537096 0.089292 6.402252
v -1.000000 4.075949 6.658918
v -1.000000 4.275949 6.658918
v -1.000000 4.075949 -5.453646
v -1.000000 4.275949 -5.453646
v 4.000000 4.075949 6.658918
v 4.000000 4.275949 6.658918
v 4.000000 4.075949 -5.453646
v 4.000000 4.275949 -5.453646
v -1.000000 4.075949 6.358918
v -1.000000 4.275949 6.358918
v 4.000000 4.075949 6.358918
v 4.000000 4.275949 6.358918
v -1.000000 4.075949 6.598346
v 4.000000 4.275949 6.598346
v -1.000000 4.275949 6.598346
v 4.000000 4.075949 6.598346
v 3.955199 4.075949 -5.453646
v 3.955199 4.275949 -5.453646
v 3.955199 4.075949 6.658918
v 3.955199 4.275949 6.658918
v 3.955199 4.275949 6.358918
v 3.955199 4.075949 6.358918
v 3.955199 4.275949 6.598346
v 3.955199 4.075949 6.598346
v 3.700000 4.075949 -5.453646
v 3.700000 4.275949 6.658918
v 3.700000 4.075949 6.358918
v 3.700000 4.075949 6.598346
v 3.700000 4.275949 -5.453646
v 3.700000 4.075949 6.658918
v 3.700000 4.275949 6.358918
v 3.700000 4.275949 6.598346
v 3.955199 0.075949 6.358918
v 3.955199 0.075949 6.598346
v 3.700000 0.075949 6.358918
v 3.700000 0.075949 6.598346
v 3.955199 0.325741 6.358918
v 3.700000 0.325741 6.358918
v 3.700000 0.325741 6.598346
v 3.955199 0.325741 6.598346
v -0.944776 4.075949 -5.453646
v -0.944776 4.275949 6.658918
v -0.944776 4.075949 6.358918
v -0.944776 4.075949 6.598346
v -0.944776 4.275949 -5.453646
v -0.944776 4.075949 6.658918
v -0.944776 4.275949 6.358918
v -0.944776 4.275949 6.598346
v -0.700000 4.275949 -5.453646
v -0.700000 4.075949 6.658918
v -0.700000 4.275949 6.358918
v -0.700000 4.275949 6.598346
v -0.700000 4.075949 -5.453646
v -0.700000 4.275949 6.658918
v -0.700000 4.075949 6.358918
v -0.700000 4.075949 6.598346
v -0.700000 0.075949 6.358918
v -0.944776 0.075949 6.358918
v -0.700000 0.075949 6.598346
v -0.944776 0.075949 6.598346
v -0.944776 0.312606 6.598346
v -0.700000 0.312606 6.598346
v -0.944776 0.312606 6.358918
v -0.700000 0.312606 6.358918
v -0.419539 0.075949 6.402252
v -0.478317 0.075949 6.383154
v -0.573423 0.075949 6.452251
v -0.383212 0.075949 6.452251
v -0.383212 0.075949 6.514055
v -0.419539 0.075949 6.564055
v -0.573423 0.075949 6.514055
v -0.537096 0.075949 6.564055
v 3.446776 0.075949 6.402252
v 3.564333 0.075949 6.402252
v 3.505555 0.075949 6.383153
v 3.410449 0.075949 6.452251
v 3.600660 0.075949 6.452251
v 3.600660 0.075949 6.514055
v 3.410449 0.075949 6.514055
v 3.505555 0.075949 6.583153
v 3.446776 0.075949 6.564055
v -1.000000 4.275949 -4.362010
v 4.000000 4.075949 -4.362010
v -1.000000 4.075949 -4.362010
v 4.000000 4.275949 -4.362010
v 3.955199 4.075949 -4.362010
v 3.955199 4.275949 -4.362010
v 3.700000 4.075949 -4.362010
v 3.700000 4.275949 -4.362010
v -0.944776 4.075949 -4.362010
v -0.944776 4.275949 -4.362010
v -0.700000 4.275949 -4.362010
v -0.700000 4.075949 -4.362010
v -1.000000 4.075949 -4.167566
v 4.000000 4.275949 -4.167566
v 3.955199 4.075949 -4.167566
v 3.955199 4.275949 -4.167566
v 3.700000 4.075949 -4.167566
v 3.700000 4.275949 -4.167566
v -0.944776 4.075949 -4.167566
v -0.944776 4.275949 -4.167566
v -0.700000 4.275949 -4.167566
v -0.700000 4.075949 -4.167566
v -1.000000 4.275949 -4.167566
v 4.000000 4.075949 -4.167566
v 2.300000 4.275949 -5.453646
v 2.300000 4.075949 6.658918
v 2.300000 4.275949 6.358918
v 2.300000 4.275949 6.598346
v 2.300000 4.075949 -5.453646
v 2.300000 4.275949 6.658918
v 2.300000 4.075949 6.358918
v 2.300000 4.075949 6.598346
v 2.300000 4.275949 -4.362010
v 2.300000 4.075949 -4.362010
v 2.300000 4.275949 -4.167566
v 2.300000 4.075949 -4.167566
v 2.300000 3.345483 -4.167566
v 2.300000 3.345483 -4.362010
v -0.700000 3.345483 -4.362010
v -0.944776 3.345483 -4.362010
v -0.944776 3.345483 -4.167566
v -0.700000 3.345483 -4.167566
vt 0.695166 0.386516
vt 0.695166 0.232744
vt 0.844130 0.232744
vt 0.844130 0.386516
vt 0.663860 0.447231
vt 0.831174 0.447231
vt 0.831174 0.675411
vt 0.826728 0.675411
vt 0.663861 0.675411
vt 0.835732 0.451794
vt 0.975579 0.451794
vt 0.975579 0.675411
vt 0.835732 0.675411
vt 0.496547 0.451794
vt 0.659415 0.451794
vt 0.663860 0.451794
vt 0.663860 0.679974
vt 0.496547 0.679974
vt 0.316618 0.780949
vt 0.316618 0.552769
vt 0.465582 0.552769
vt 0.465582 0.780949
vt 0.844130 0.004564
vt 0.728741 0.230223
vt 0.738396 0.230223
vt 0.738396 0.219053
vt 0.738396 0.082145
vt 0.695166 0.004564
vt 0.831174 0.451794
vt 0.831174 0.447231
vt 0.835732 0.447231
vt 0.501106 0.825471
vt 0.640953 0.825471
vt 0.645511 0.829661
vt 0.496547 0.829661
vt 0.975579 0.447231
vt 0.640953 0.679975
vt 0.645511 0.679975
vt 0.493805 0.685488
vt 0.493805 0.689677
vt 0.489360 0.689677
vt 0.659415 0.447231
vt 0.663860 0.447231
vt 0.496547 0.679975
vt 0.501106 0.679975
vt 0.493805 0.556959
vt 0.489360 0.552769
vt 0.493805 0.552769
vt 0.980138 0.451794
vt 0.980138 0.447231
vt 0.695166 0.000000
vt 0.844130 0.000000
vt 0.831174 0.679974
vt 0.826728 0.679974
vt 0.645511 0.825471
vt 0.645511 0.679975
vt 0.785358 0.679975
vt 0.785359 0.825471
vt 0.158309 0.552769
vt 0.316618 0.552769
vt 0.316618 0.776386
vt 0.158309 0.776386
vt 0.000000 0.552769
vt 0.158309 0.552769
vt 0.158309 0.776386
vt 0.000000 0.776386
vt 0.831174 0.675411
vt 0.971021 0.675411
vt 0.971021 0.899027
vt 0.831174 0.899027
vt 0.728741 0.082145
vt 0.728741 0.219053
vt 0.706415 0.429849
vt 0.704611 0.432130
vt 0.704611 0.434950
vt 0.706404 0.437245
vt 0.709333 0.438104
vt 0.712251 0.437233
vt 0.714055 0.434953
vt 0.714055 0.432133
vt 0.712251 0.429851
vt 0.709333 0.428979
vt 0.695166 0.425825
vt 0.695166 0.423005
vt 0.696970 0.420723
vt 0.699889 0.419851
vt 0.702807 0.420723
vt 0.704611 0.423005
vt 0.704611 0.425825
vt 0.702807 0.428107
vt 0.699889 0.428979
vt 0.696970 0.428107
vt 0.712252 0.428107
vt 0.714056 0.425825
vt 0.714056 0.423005
vt 0.712252 0.420723
vt 0.709333 0.419851
vt 0.706415 0.420723
vt 0.704611 0.423005
vt 0.704611 0.425825
vt 0.706415 0.428107
vt 0.709333 0.428979
vt 0.699889 0.428979
vt 0.702807 0.429850
vt 0.704611 0.432132
vt 0.704611 0.434952
vt 0.702807 0.437234
vt 0.699889 0.438106
vt 0.696970 0.437234
vt 0.695166 0.434953
vt 0.695166 0.432132
vt 0.696970 0.429850
vt 1.000000 0.497049
vt 0.990069 0.497049
vt 0.990069 0.447231
vt 1.000000 0.447231
vt 0.900263 0.002045
vt 0.890332 0.002045
vt 0.890332 0.000000
vt 0.900263 0.000000
vt 0.990069 0.449995
vt 0.980138 0.449995
vt 0.980138 0.447231
vt 0.990069 0.447231
vt 0.880401 0.225660
vt 0.890332 0.225660
vt 0.890332 0.228180
vt 0.880401 0.228180
vt 0.002225 0.002764
vt 0.000000 0.002764
vt 0.000000 0.000000
vt 0.002225 0.000000
vt 0.493805 0.550005
vt 0.496547 0.550005
vt 0.496547 0.552769
vt 0.493805 0.552769
vt 0.493805 0.058692
vt 0.496547 0.058692
vt 0.496547 0.539078
vt 0.493805 0.539078
vt 0.002225 0.494078
vt 0.000000 0.494078
vt 0.000000 0.013691
vt 0.002225 0.013691
vt 0.990069 0.941308
vt 0.980138 0.941308
vt 0.980138 0.460922
vt 0.990069 0.460922
vt 1.000000 0.997236
vt 0.990069 0.997236
vt 0.990069 0.986309
vt 1.000000 0.986309
vt 1.000000 1.000000
vt 0.990069 1.000000
vt 0.682763 0.235262
vt 0.682763 0.223615
vt 0.695166 0.223615
vt 0.695166 0.235262
vt 0.248274 0.539078
vt 0.250498 0.539078
vt 0.250498 0.550005
vt 0.248274 0.550005
vt 0.014896 0.494078
vt 0.014896 0.013691
vt 0.248274 0.058692
vt 0.250498 0.058692
vt 0.250498 0.552769
vt 0.248274 0.552769
vt 0.014896 0.002764
vt 0.014896 0.000000
vt 0.880401 0.000000
vt 0.890332 0.000000
vt 0.890332 0.002045
vt 0.880401 0.002045
vt 0.900263 0.013691
vt 0.890332 0.013691
vt 0.900263 0.077581
vt 0.890332 0.077581
vt 0.084413 0.002764
vt 0.084413 0.000000
vt 0.084413 0.494078
vt 0.084413 0.013691
vt 0.263170 0.539078
vt 0.263170 0.550005
vt 0.263170 0.058692
vt 0.263170 0.552769
vt 0.890332 0.013691
vt 0.880401 0.013691
vt 0.477471 0.764738
vt 0.477471 0.776385
vt 0.465582 0.776385
vt 0.465582 0.764738
vt 0.880401 0.399325
vt 0.892290 0.399325
vt 0.892290 0.410724
vt 0.880401 0.410724
vt 0.916068 0.239580
vt 0.904179 0.239580
vt 0.904179 0.228180
vt 0.916068 0.228180
vt 0.508951 0.000000
vt 0.508951 0.011646
vt 0.496547 0.011646
vt 0.496547 0.000000
vt 0.695166 0.000000
vt 0.695166 0.011646
vt 0.916068 0.410724
vt 0.904179 0.410724
vt 0.880401 0.228180
vt 0.892290 0.228180
vt 0.496547 0.235262
vt 0.496547 0.223615
vt 0.248274 0.013691
vt 0.245531 0.013691
vt 0.245531 0.002764
vt 0.248274 0.002764
vt 0.248274 0.494078
vt 0.245531 0.494078
vt 0.245531 0.000000
vt 0.248274 0.000000
vt 0.900263 0.228180
vt 0.890332 0.228180
vt 0.890332 0.225660
vt 0.900263 0.225660
vt 0.481651 0.539078
vt 0.481651 0.550005
vt 0.481651 0.058692
vt 0.481651 0.552769
vt 0.880401 0.214489
vt 0.890332 0.214489
vt 0.880401 0.077581
vt 0.890332 0.077581
vt 0.332687 0.550005
vt 0.332687 0.552769
vt 0.332687 0.058692
vt 0.332687 0.539078
vt 0.508298 0.212445
vt 0.508298 0.223615
vt 0.496547 0.223615
vt 0.496547 0.212445
vt 0.233377 0.494078
vt 0.233377 0.013691
vt 0.233377 0.002764
vt 0.233377 0.000000
vt 0.890332 0.214489
vt 0.900263 0.214489
vt 0.477471 0.552769
vt 0.477471 0.563940
vt 0.465582 0.563940
vt 0.465582 0.552769
vt 0.892290 0.399924
vt 0.904179 0.399924
vt 0.904179 0.410724
vt 0.892290 0.410724
vt 0.912152 0.010800
vt 0.900263 0.010800
vt 0.900263 0.000000
vt 0.912152 0.000000
vt 0.683415 0.447231
vt 0.683415 0.436060
vt 0.695166 0.436060
vt 0.695166 0.447231
vt 0.496547 0.447231
vt 0.496547 0.436060
vt 0.912152 0.182544
vt 0.900263 0.182544
vt 0.892290 0.228180
vt 0.904179 0.228180
vt 0.695166 0.212445
vt 0.695166 0.223615
vt 0.489360 0.552769
vt 0.489360 0.753568
vt 0.477471 0.753568
vt 0.477471 0.552769
vt 0.469768 0.760205
vt 0.472836 0.760205
vt 0.475319 0.758547
vt 0.476267 0.755865
vt 0.475319 0.753182
vt 0.472836 0.751524
vt 0.472836 0.578397
vt 0.475319 0.576739
vt 0.476267 0.574056
vt 0.475319 0.571374
vt 0.472836 0.569716
vt 0.469767 0.569716
vt 0.467285 0.571374
vt 0.466336 0.574056
vt 0.467285 0.576739
vt 0.469768 0.578397
vt 0.469768 0.751524
vt 0.467285 0.753182
vt 0.466336 0.755865
vt 0.467285 0.758547
vt 0.245531 0.552769
vt 0.233377 0.552769
vt 0.233377 0.502951
vt 0.245531 0.502951
vt 0.332687 0.000000
vt 0.481651 0.000000
vt 0.481651 0.049818
vt 0.332687 0.049818
vt 0.493805 0.000000
vt 0.493805 0.049818
vt 0.248274 0.552769
vt 0.248274 0.502951
vt 0.250498 0.000000
vt 0.263170 0.000000
vt 0.263170 0.049818
vt 0.250498 0.049818
vt 0.084413 0.552769
vt 0.014897 0.552769
vt 0.014896 0.502951
vt 0.084413 0.502951
vt 0.248274 0.000000
vt 0.248274 0.049818
vt 0.002225 0.552769
vt 0.002225 0.502951
vt 0.990069 1.000000
vt 0.980138 1.000000
vt 0.980138 0.950182
vt 0.990069 0.950182
vt 0.000000 0.552769
vt 0.000000 0.502951
vt 0.496547 0.000000
vt 0.496547 0.049818
vt 1.000000 0.505922
vt 0.990069 0.505922
vt 0.880401 0.000000
vt 0.880401 0.011171
vt 0.844130 0.011171
vt 0.844130 0.000000
vt 0.704821 0.386516
vt 0.714476 0.386516
vt 0.714476 0.419851
vt 0.704821 0.419851
vt 0.695166 0.386516
vt 0.704821 0.386516
vt 0.704821 0.419851
vt 0.695166 0.419851
vt 0.880401 0.148079
vt 0.844130 0.148079
vt 0.880401 0.284987
vt 0.880401 0.296157
vt 0.844130 0.296157
vt 0.844130 0.284987
vt 0.880401 0.148079
vt 0.844130 0.148079
vt 0.707441 0.442506
vt 0.707441 0.446297
vt 0.704373 0.446297
vt 0.704373 0.442506
vt 0.714055 0.436561
vt 0.714055 0.432770
vt 0.717124 0.432770
vt 0.717124 0.436561
vt 0.704373 0.441897
vt 0.704373 0.438106
vt 0.707442 0.438106
vt 0.707442 0.441897
vt 0.704373 0.442506
vt 0.704373 0.446297
vt 0.701304 0.446906
vt 0.701304 0.442506
vt 0.695166 0.442506
vt 0.695166 0.438106
vt 0.698235 0.438715
vt 0.698235 0.442506
vt 0.710510 0.446297
vt 0.710510 0.442506
vt 0.713579 0.442506
vt 0.713579 0.446297
vt 0.716648 0.442506
vt 0.716648 0.446297
vt 0.710510 0.441897
vt 0.710510 0.438106
vt 0.713579 0.438106
vt 0.713579 0.441897
vt 0.717545 0.386516
vt 0.717545 0.390307
vt 0.714476 0.390307
vt 0.714476 0.386516
vt 0.713579 0.441897
vt 0.713579 0.438106
vt 0.716648 0.438106
vt 0.716648 0.441897
vt 0.714055 0.432770
vt 0.714055 0.428979
vt 0.717124 0.428979
vt 0.717124 0.432770
vt 0.714056 0.423643
vt 0.714056 0.419851
vt 0.717125 0.419851
vt 0.717125 0.423643
vt 0.707442 0.441897
vt 0.707442 0.438106
vt 0.710510 0.438106
vt 0.710510 0.441897
vt 0.714476 0.394098
vt 0.714476 0.390307
vt 0.717545 0.390307
vt 0.717545 0.394098
vt 0.701304 0.442506
vt 0.701304 0.438715
vt 0.704373 0.438106
vt 0.704373 0.442506
vt 0.698235 0.446906
vt 0.698235 0.442506
vt 0.701304 0.443115
vt 0.701304 0.446906
vt 0.717125 0.423643
vt 0.717125 0.427434
vt 0.714056 0.427434
vt 0.714056 0.423643
vt 0.707441 0.446297
vt 0.707441 0.442506
vt 0.710510 0.442506
vt 0.710510 0.446297
vt 0.698235 0.442506
vt 0.698235 0.438715
vt 0.701304 0.438106
vt 0.701304 0.442506
vt 0.695166 0.446906
vt 0.695166 0.442506
vt 0.698235 0.443115
vt 0.698235 0.446906
vn -1.0000 0.0000 0.0000
vn 0.0000 0.0000 -1.0000
vn 0.0000 -1.0000 0.0000
vn -0.0000 0.0000 1.0000
vn 0.0000 1.0000 0.0000
vn 1.0000 0.0000 0.0000
vn 0.0157 -0.9996 0.0216
vn -0.0157 -0.9999 0.0051
vn -0.0030 1.0000 0.0000
vn 0.0012 -1.0000 0.0016
vn 0.0000 -1.0000 -0.0039
vn -0.0012 -1.0000 -0.0016
vn 0.0000 -0.6437 -0.7653
vn 0.0073 -0.8639 -0.5036
vn 0.3082 -0.8612 -0.4042
vn 0.4498 -0.6437 -0.6191
vn 0.4922 -0.8578 -0.1476
vn 0.7278 -0.6437 -0.2365
vn 0.4333 -0.8875 0.1565
vn 0.7278 -0.6437 0.2365
vn 0.2847 -0.8749 0.3918
vn 0.4498 -0.6437 0.6191
vn 0.0172 -0.8373 0.5464
vn 0.0000 -0.6437 0.7653
vn -0.2936 -0.8581 0.4213
vn -0.4498 -0.6437 0.6191
vn -0.4805 -0.8610 0.1668
vn -0.7278 -0.6437 0.2365
vn -0.4041 -0.9061 -0.1252
vn -0.7278 -0.6437 -0.2365
vn -0.2950 -0.8650 -0.4060
vn -0.4498 -0.6437 -0.6191
vn -0.0172 -0.8425 -0.5384
vn 0.2950 -0.8622 -0.4118
vn 0.4039 -0.9054 -0.1310
vn 0.4035 -0.9052 0.1333
vn 0.3026 -0.8428 0.4451
vn -0.0069 -0.8792 0.4764
vn -0.3146 -0.8394 0.4433
vn -0.4910 -0.8567 0.1579
vn -0.4337 -0.8888 -0.1480
vn -0.2859 -0.8788 -0.3818
usemtl Dek_wood
s off
f 1/1/1 2/2/1 4/3/1 3/4/1
f 3/5/2 4/6/2 9/7/2 14/8/2 10/9/2
f 8/10/3 6/11/3 24/12/3 21/13/3
f 11/14/4 13/15/4 12/16/4 2/17/4 1/18/4
f 3/19/3 10/20/3 11/21/3 1/22/3
f 9/23/5 4/3/5 2/2/5 169/24/5 168/25/5 167/26/5 166/27/5 12/28/5
f 8/10/3 14/29/3 20/30/3 17/31/3
f 7/32/6 5/33/6 11/34/6 10/35/6
f 6/11/3 8/10/3 17/31/3 18/36/3
f 5/33/6 6/37/6 13/38/6 11/34/6
f 17/39/6 20/40/6 15/41/6
f 12/16/4 13/15/4 19/42/4 16/43/4
f 14/44/6 8/45/6 7/32/6 10/35/6
f 18/46/6 17/39/6 15/41/6 16/47/6
f 19/48/6 18/46/6 16/47/6
f 13/49/3 6/11/3 18/36/3 19/50/3
f 9/23/5 12/28/5 16/51/5 15/52/5
f 14/8/2 9/7/2 15/53/2 20/54/2
f 22/55/6 21/56/6 24/57/6 23/58/6
f 7/59/4 8/60/4 21/61/4 22/62/4
f 6/63/2 5/64/2 23/65/2 24/66/2
f 5/67/5 7/68/5 22/69/5 23/70/5
f 12/28/5 166/27/5 165/71/5 170/72/5 169/24/5 2/2/5
usemtl Desk_blue
f 121/73/7 124/74/7 125/75/7 30/76/7 127/77/7 128/78/7 126/79/7 123/80/7 120/81/7 122/82/7
f 25/83/3 26/84/3 27/85/3 28/86/3 29/87/3 31/88/3 32/89/3 33/90/3 34/91/3 35/92/3
f 112/93/8 115/94/8 116/95/8 117/96/8 42/97/8 119/98/8 118/99/8 114/100/8 47/101/8 113/102/8
f 36/103/3 37/104/3 38/105/3 39/106/3 40/107/3 41/108/3 43/109/3 44/110/3 45/111/3 46/112/3
f 131/113/1 129/114/1 51/115/1 50/116/1
f 64/117/2 65/118/2 55/119/2 54/120/2
f 63/121/6 61/122/6 53/123/6 52/124/6
f 93/125/4 89/126/4 49/127/4 48/128/4
f 71/129/3 63/130/3 52/131/3 66/132/3
f 95/133/5 62/134/5 49/135/5 89/136/5
f 148/137/5 151/138/5 57/139/5 94/140/5
f 143/141/3 152/142/3 58/143/3 69/144/3
f 152/145/6 142/146/6 59/147/6 58/148/6
f 60/149/1 62/150/1 57/151/1 56/152/1
f 48/153/1 49/154/1 62/150/1 60/149/1
f 94/140/5 57/139/5 62/134/5 95/133/5
f 69/144/3 58/143/3 63/130/3 71/129/3
f 58/148/6 59/147/6 61/122/6 63/121/6
f 85/155/2 84/156/2 80/157/2 82/158/2
f 59/159/5 68/160/5 70/161/5 61/162/5
f 145/163/3 143/141/3 69/144/3 74/164/3
f 142/165/5 144/166/5 68/160/5 59/159/5
f 61/162/5 70/161/5 67/167/5 53/168/5
f 75/169/3 71/129/3 66/132/3 77/170/3
f 52/171/4 53/172/4 67/173/4 66/174/4
f 72/175/2 76/176/2 65/118/2 64/117/2
f 157/177/2 153/178/2 76/176/2 72/175/2
f 160/179/3 75/169/3 77/170/3 154/180/3
f 164/181/3 145/163/3 74/164/3 159/182/3
f 159/182/3 74/164/3 75/169/3 160/179/3
f 68/160/5 78/183/5 79/184/5 70/161/5
f 144/166/5 146/185/5 78/183/5 68/160/5
f 70/161/5 79/184/5 73/186/5 67/167/5
f 66/174/4 67/173/4 73/187/4 77/188/4
f 82/189/3 80/190/3 81/191/3 83/192/3
f 86/193/1 85/194/1 82/195/1 83/196/1
f 84/197/6 87/198/6 81/199/6 80/200/6
f 87/201/4 86/202/4 83/203/4 81/204/4
f 71/205/4 75/206/4 86/202/4 87/201/4
f 69/207/6 71/208/6 87/198/6 84/197/6
f 75/209/1 74/210/1 85/194/1 86/193/1
f 74/211/2 69/212/2 84/156/2 85/155/2
f 56/213/3 90/214/3 91/215/3 60/216/3
f 141/217/3 147/218/3 90/214/3 56/213/3
f 60/216/3 91/215/3 93/219/3 48/220/3
f 50/221/2 51/222/2 92/223/2 88/224/2
f 98/225/5 94/140/5 95/133/5 99/226/5
f 149/227/5 148/137/5 94/140/5 98/225/5
f 99/226/5 95/133/5 89/136/5 101/228/5
f 97/229/4 101/230/4 89/126/4 93/125/4
f 154/231/4 158/232/4 101/230/4 97/229/4
f 156/233/5 99/226/5 101/228/5 158/234/5
f 163/235/5 149/227/5 98/225/5 155/236/5
f 155/236/5 98/225/5 99/226/5 156/233/5
f 109/237/4 108/238/4 107/239/4 106/240/4
f 147/218/3 150/241/3 102/242/3 90/214/3
f 91/215/3 103/243/3 97/244/3 93/219/3
f 88/224/2 92/223/2 96/245/2 100/246/2
f 105/247/3 104/248/3 106/249/3 107/250/3
f 108/251/1 110/252/1 105/253/1 107/254/1
f 111/255/6 109/256/6 106/257/6 104/258/6
f 110/259/2 111/260/2 104/261/2 105/262/2
f 90/263/2 102/264/2 111/260/2 110/259/2
f 102/265/6 103/266/6 109/256/6 111/255/6
f 91/267/1 90/268/1 110/252/1 108/251/1
f 103/269/4 91/270/4 108/238/4 109/237/4
f 83/203/4 86/202/4 109/237/4 106/240/4
f 85/271/9 111/272/9 109/273/9 86/274/9
f 82/158/2 104/261/2 111/260/2 85/155/2
f 104/248/10 82/189/10 83/192/10 125/275/10 124/276/10 121/277/10 122/278/10 120/279/10 123/280/10 115/281/10 112/282/10 113/283/10 47/284/10 114/285/10
f 114/285/11 118/286/11 119/287/11 42/288/11 117/289/11 116/290/11 83/192/11 106/249/11 104/248/11
f 115/281/12 123/280/12 126/291/12 128/292/12 127/293/12 30/294/12 125/275/12 83/192/12 116/290/12
f 88/295/3 100/296/3 140/297/3 137/298/3
f 153/299/5 96/300/5 139/301/5 161/302/5
f 96/300/5 92/303/5 138/304/5 139/301/5
f 50/305/3 88/295/3 137/298/3 131/306/3
f 65/307/5 76/308/5 136/309/5 134/310/5
f 157/311/3 72/312/3 135/313/3 162/314/3
f 55/315/5 65/307/5 134/310/5 132/316/5
f 72/312/3 64/317/3 133/318/3 135/313/3
f 54/319/6 55/320/6 132/321/6 130/322/6
f 64/317/3 54/323/3 130/324/3 133/318/3
f 92/303/5 51/325/5 129/326/5 138/304/5
f 141/327/1 151/328/1 129/114/1 131/113/1
f 56/152/1 57/151/1 151/328/1 141/327/1
f 137/329/2 140/330/2 167/331/2 168/332/2
f 161/302/5 139/301/5 149/227/5 163/235/5
f 139/301/5 138/304/5 148/137/5 149/227/5
f 131/306/3 137/298/3 147/218/3 141/217/3
f 134/310/5 136/309/5 146/185/5 144/166/5
f 162/314/3 135/313/3 145/163/3 164/181/3
f 132/316/5 134/310/5 144/166/5 142/165/5
f 135/313/3 133/318/3 143/141/3 145/163/3
f 130/322/6 132/321/6 142/146/6 152/145/6
f 133/318/3 130/324/3 152/142/3 143/141/3
f 138/304/5 129/326/5 151/138/5 148/137/5
f 162/333/6 164/334/6 165/335/6 166/336/6
f 136/309/5 161/302/5 163/235/5 146/185/5
f 100/296/3 157/311/3 162/314/3 140/297/3
f 76/308/5 153/299/5 161/302/5 136/309/5
f 78/183/5 155/236/5 156/233/5 79/184/5
f 146/185/5 163/235/5 155/236/5 78/183/5
f 79/184/5 156/233/5 158/234/5 73/186/5
f 77/188/4 73/187/4 158/232/4 154/231/4
f 102/242/3 159/182/3 160/179/3 103/243/3
f 150/241/3 164/181/3 159/182/3 102/242/3
f 103/243/3 160/179/3 154/180/3 97/244/3
f 100/246/2 96/245/2 153/178/2 157/177/2
f 147/337/1 137/338/1 168/339/1 169/340/1
f 140/330/2 162/341/2 166/342/2 167/331/2
f 150/343/4 147/344/4 169/345/4 170/346/4
f 164/347/4 150/343/4 170/346/4 165/348/4
s 1
f 25/349/13 122/350/14 121/351/15 26/352/16
f 26/353/16 121/354/15 124/355/17 27/356/18
f 27/357/18 124/358/17 125/359/19 28/360/20
f 28/361/20 125/362/19 30/363/21 29/364/22
f 29/365/22 30/366/21 127/367/23 31/368/24
f 31/369/24 127/370/23 128/371/25 32/372/26
f 32/372/26 128/371/25 126/373/27 33/374/28
f 33/375/28 126/376/27 123/377/29 34/378/30
f 34/379/30 123/380/29 120/381/31 35/382/32
f 35/383/32 120/384/31 122/385/14 25/386/13
f 36/387/13 113/388/33 112/389/34 37/390/16
f 37/391/16 112/392/34 115/393/35 38/394/18
f 38/395/18 115/396/35 116/397/36 39/398/20
f 39/399/20 116/400/36 117/401/37 40/402/22
f 40/403/22 117/404/37 42/405/38 41/406/24
f 41/407/24 42/408/38 119/409/39 43/410/26
f 43/411/26 119/412/39 118/413/40 44/414/28
f 44/415/28 118/416/40 114/417/41 45/418/30
f 45/419/30 114/420/41 47/421/42 46/422/32
f 46/423/32 47/424/42 113/425/33 36/426/13
